<svg version="1.1" xmlns="http://www.w3.org/2000/svg" xmlns:xlink="http://www.w3.org/1999/xlink" width="229.5" height="319.58333" viewBox="0,0,229.5,319.58333"><g transform="translate(-121.66667,-1.41667)"><g data-paper-data="{&quot;isPaintingLayer&quot;:true}" fill-rule="nonzero" stroke-linecap="butt" stroke-linejoin="miter" stroke-miterlimit="10" stroke-dasharray="" stroke-dashoffset="0" style="mix-blend-mode: normal"><path d="M155.66668,23.16668v-21h162v21z" fill="#ff0000" stroke="#ffffff" stroke-width="1.5"/><path d="M157.83334,183.00002v-157h159v157z" fill="none" stroke="#ffffff" stroke-width="5"/><path d="M164.5,44.83335c0,-11.0457 8.95431,-20 20,-20c11.04569,0 20,8.9543 20,20c0,11.0457 -8.95431,20 -20,20c-11.04569,0 -20,-8.95431 -20,-20z" fill="#ff0000" stroke="#ffffff" stroke-width="5"/><path d="M198.50001,51.83335c0,-11.0457 8.95431,-20 20,-20c11.04569,0 20,8.9543 20,20c0,11.0457 -8.95431,20 -20,20c-11.04569,0 -20,-8.95431 -20,-20z" fill="#67ff00" stroke="#ffffff" stroke-width="5"/><path d="M165.5,150.83335c0,-11.04569 8.95431,-20 20,-20c11.04569,0 20,8.95431 20,20c0,11.04569 -8.95431,20 -20,20c-11.04569,0 -20,-8.95431 -20,-20z" fill="#00ff3a" stroke="#ffffff" stroke-width="5"/><path d="M218.50001,147.83335c0,-11.04569 8.95431,-20 20,-20c11.04569,0 20,8.95431 20,20c0,11.04569 -8.95431,20 -20,20c-11.04569,0 -20,-8.95431 -20,-20z" fill="#009cff" stroke="#ffffff" stroke-width="5"/><path d="M171.50001,105.83336c0,-11.04569 8.95431,-20 20,-20c11.04569,0 20,8.95431 20,20c0,11.04569 -8.95431,20 -20,20c-11.04569,0 -20,-8.95431 -20,-20z" fill="#ff0000" stroke="#ffffff" stroke-width="5"/><path d="M225.50001,87.83336c0,-11.04569 8.95431,-20 20,-20c11.0457,0 20,8.95431 20,20c0,11.04569 -8.9543,20 -20,20c-11.04569,0 -20,-8.95431 -20,-20z" fill="#ff0000" stroke="#ffffff" stroke-width="5"/><path d="M261.50001,83.83336c0,-11.04569 8.9543,-20 20,-20c11.0457,0 20,8.95431 20,20c0,11.04569 -8.9543,20 -20,20c-11.0457,0 -20,-8.95431 -20,-20z" fill="#009cff" stroke="#ffffff" stroke-width="5"/><path d="M191.50001,166.83335c0,-11.04569 8.95431,-20 20,-20c11.04569,0 20,8.95431 20,20c0,11.04569 -8.95431,20 -20,20c-11.04569,0 -20,-8.95431 -20,-20z" fill="#009cff" stroke="#ffffff" stroke-width="5"/><path d="M256.50001,157.83335c0,-11.04569 8.9543,-20 20,-20c11.0457,0 20,8.95431 20,20c0,11.04569 -8.9543,20 -20,20c-11.0457,0 -20,-8.95431 -20,-20z" fill="#009cff" stroke="#ffffff" stroke-width="5"/><path d="M161.5,81.83336c0,-11.04569 8.95431,-20 20,-20c11.04569,0 20,8.95431 20,20c0,11.04569 -8.95431,20 -20,20c-11.04569,0 -20,-8.95431 -20,-20z" fill="#67ff00" stroke="#ffffff" stroke-width="5"/><path d="M198.50001,113.83336c0,-11.04569 8.95431,-20 20,-20c11.04569,0 20,8.95431 20,20c0,11.04569 -8.95431,20 -20,20c-11.04569,0 -20,-8.95431 -20,-20z" fill="#67ff00" stroke="#ffffff" stroke-width="5"/><path d="M186.50001,79.83336c0,-11.04569 8.95431,-20 20,-20c11.04569,0 20,8.95431 20,20c0,11.04569 -8.95431,20 -20,20c-11.04569,0 -20,-8.95431 -20,-20z" fill="#7400ff" stroke="#ffffff" stroke-width="5"/><path d="M230.50001,51.83335c0,-11.04569 8.9543,-20 20,-20c11.0457,0 20,8.95431 20,20c0,11.04569 -8.9543,20 -20,20c-11.0457,0 -20,-8.95431 -20,-20z" fill="#7400ff" stroke="#ffffff" stroke-width="5"/><path d="M160.5,132.83335c0,-11.0457 8.95431,-20 20,-20c11.0457,0 20,8.9543 20,20c0,11.04569 -8.9543,20 -20,20c-11.04569,0 -20,-8.95431 -20,-20z" fill="#7400ff" stroke="#ffffff" stroke-width="5"/><path d="M243.50001,115.83336c0,-11.04569 8.9543,-20 20,-20c11.0457,0 20,8.9543 20,20c0,11.04569 -8.9543,20 -20,20c-11.0457,0 -20,-8.9543 -20,-20z" fill="#7400ff" stroke="#ffffff" stroke-width="5"/><path d="M193.50001,133.83334c0,-11.04569 8.95431,-20 20,-20c11.0457,0 20,8.9543 20,20c0,11.0457 -8.9543,20 -20,20c-11.04569,0 -20,-8.9543 -20,-20z" fill="#7400ff" stroke="#ffffff" stroke-width="5"/><path d="M221.50001,129.83335c0,-11.0457 8.9543,-20 20,-20c11.0457,0 20,8.9543 20,20c0,11.04569 -8.9543,20 -20,20c-11.0457,0 -20,-8.95431 -20,-20z" fill="#7400ff" stroke="#ffffff" stroke-width="5"/><path d="M272.50001,129.83335c0,-11.0457 8.9543,-20 20,-20c11.0457,0 20,8.9543 20,20c0,11.04569 -8.9543,20 -20,20c-11.0457,0 -20,-8.95431 -20,-20z" fill="#7400ff" stroke="#ffffff" stroke-width="5"/><path d="M253.16667,317.16667v-57h46v57z" fill="none" stroke="#ffffff" stroke-width="5"/><path d="M121.66667,319l35.11969,-133h92.88031v131z" fill="#ff0000" stroke="none" stroke-width="0"/><path d="M248.16667,257.5v-71.5h53v71.5z" fill="#ff0000" stroke="none" stroke-width="0"/><path d="M301.16667,320.5l-3,-135h22.5l30.5,135.5z" fill="#ff0000" stroke="none" stroke-width="0"/></g></g></svg>