<svg version="1.1" xmlns="http://www.w3.org/2000/svg" xmlns:xlink="http://www.w3.org/1999/xlink" width="423.88281" height="28" viewBox="0,0,423.88281,28"><g transform="translate(-28.31001,-165.24661)"><g data-paper-data="{&quot;isPaintingLayer&quot;:true}" fill-rule="nonzero" stroke="none" stroke-width="1" stroke-linecap="butt" stroke-linejoin="miter" stroke-miterlimit="10" stroke-dasharray="" stroke-dashoffset="0" style="mix-blend-mode: normal"><text transform="translate(28.56001,186.99661) scale(0.5,0.5)" font-size="40" xml:space="preserve" fill="#ff6666" fill-rule="nonzero" stroke="none" stroke-width="1" stroke-linecap="butt" stroke-linejoin="miter" stroke-miterlimit="10" stroke-dasharray="" stroke-dashoffset="0" font-family="Sans Serif" font-weight="normal" text-anchor="start" style="mix-blend-mode: normal"><tspan x="0" dy="0">おめでとう！　が揃った！50ポイントゲット！</tspan></text><g><path d="M165.98795,179.68727c0,5.3571 -4.61883,9.7012 -10.31741,9.7012c-5.69858,0 -10.31704,-4.34225 -10.31704,-9.7012c0,-5.3571 4.61809,-7.84555 10.31704,-7.84555c5.69821,-0.00037 10.31741,2.48882 10.31741,7.84555z" fill="#ec1c2c"/><g fill="#231f20"><path d="M167.1433,179.58365c0,5.95783 -5.13584,10.78796 -11.47203,10.78796c-6.33508,0 -11.47129,-4.83013 -11.47129,-10.78796c0,-5.25053 3.99045,-7.61434 9.27416,-8.10259c0,0 1.66978,-0.21389 3.36907,-0.0697c5.78377,0.2692 10.30008,2.58765 10.30008,8.17228zM165.39313,179.74185c0,-4.64722 -3.69027,-7.00071 -8.46287,-7.34587c0,0 -3.02648,0.04241 -3.11831,0.0531c-4.4787,0.49452 -7.85994,2.84321 -7.85994,7.29203c0,5.04697 4.35073,9.13993 9.71964,9.13993c5.36853,0 9.71927,-4.09223 9.72148,-9.13919z"/><path d="M158.97286,174.76901c-1.31577,0.06675 -2.57622,0.09994 -3.89457,0.24781c-0.88025,0.09883 -1.72842,0.10657 -2.3804,-0.55832c-0.14161,-0.14566 0.04351,-0.3968 0.22052,-0.28506c0.43588,0.27326 0.87509,0.38389 1.31687,0.40528c0.02876,0.0236 1.57612,-0.1807 2.28268,-0.40491c0.85259,-0.23232 1.70592,-0.42408 2.5552,-0.14345c0.40601,0.13423 0.32747,0.71615 -0.10031,0.73864z"/></g><path d="M148.82988,179.63528c0,1.26525 0.68222,2.29079 -0.03098,2.29079c-0.7132,0 -1.29069,-1.02555 -1.29069,-2.29079c0,-1.26488 0.57749,-2.29042 1.29069,-2.29042c0.7132,0 0.03098,1.02591 0.03098,2.29042z" fill="#ffffff"/></g><g><path d="M153.09322,168.72894c0.37651,-0.22495 0.75192,-0.45064 1.12806,-0.67595c0.27068,0.41597 0.54283,0.82199 0.76114,1.28405c0.79728,1.68306 0.62174,3.46089 0.59888,5.24094c-0.13829,0.03282 -0.36029,0.05642 -0.4971,0.08076c0.09514,-2.26719 -0.44437,-4.34557 -1.99098,-5.9298z" fill="#99661d"/><path d="M156.47888,173.80025c0,0 -0.08482,0.69181 -0.09256,0.82235c0,0 -1.39063,0.4145 -1.93604,0.20725l-0.01696,-0.59335c0.01106,-1.18559 -0.35771,-2.45895 -0.57602,-2.85759c-0.10436,-0.19028 -0.52476,-1.27815 -1.80697,-2.41802c-0.21979,-0.19434 -0.14566,-0.55868 0.08924,-0.69992c0.66637,-0.39975 1.33089,-0.79949 1.99651,-1.19924c0.21389,-0.12796 0.46649,-0.03245 0.61142,0.16041c2.03855,2.7134 1.79369,6.29746 1.73137,6.5781zM155.54368,174.06355c0.0413,-1.63807 0.1807,-3.16035 -0.56127,-4.72651c-0.21831,-0.46207 -0.49046,-0.86808 -0.76114,-1.28405c-0.37614,0.22532 -0.75155,0.451 -1.12806,0.67595c1.46106,1.49646 2.05773,3.30749 2.03929,5.41463v0.42482l0.40896,-0.052z" fill="#231f20"/></g></g></g></svg>