<svg version="1.1" xmlns="http://www.w3.org/2000/svg" xmlns:xlink="http://www.w3.org/1999/xlink" width="120" height="52.288" viewBox="0,0,120,52.288"><defs><linearGradient x1="185.5508" y1="176.9297" x2="296.5439" y2="176.9297" gradientUnits="userSpaceOnUse" id="color-1"><stop offset="0" stop-color="#ff7979"/><stop offset="1" stop-color="#ffa1a1"/></linearGradient></defs><g transform="translate(-181.048,-150.787)"><g data-paper-data="{&quot;isPaintingLayer&quot;:true}" fill-rule="nonzero" stroke-width="1" stroke-linecap="butt" stroke-linejoin="miter" stroke-miterlimit="10" stroke-dasharray="" stroke-dashoffset="0" style="mix-blend-mode: normal"><path d="M301.048,176.931c0,14.415 -11.73,26.144 -26.146,26.144h-67.711c-14.415,0 -26.143,-11.728 -26.143,-26.144c0,-14.416 11.727,-26.144 26.143,-26.144h67.711c14.416,0 26.145,11.727 26.146,26.144z" fill="#fa9e78" stroke="none"/><path d="M296.544,176.929c0,11.953 -9.689,21.641 -21.642,21.641h-67.711c-11.952,0 -21.64,-9.688 -21.64,-21.641v0c0,-11.951 9.688,-21.64 21.64,-21.64h67.711c11.952,0 21.642,9.689 21.642,21.64z" fill="url(#color-1)" stroke="none"/><text transform="translate(200,185.76875) scale(0.5,0.5)" font-size="40" xml:space="preserve" data-paper-data="{&quot;index&quot;:null}" fill="#ffffff" fill-rule="nonzero" stroke="#a0a0a0" stroke-width="1" stroke-linecap="butt" stroke-linejoin="miter" stroke-miterlimit="10" stroke-dasharray="" stroke-dashoffset="0" font-family="Sans Serif" font-weight="normal" text-anchor="start" style="mix-blend-mode: normal"><tspan x="0" dy="0">スタート</tspan></text></g></g></svg>